ffmpeg version 3.4.8-0ubuntu0.2 Copyright (c) 2000-2020 the FFmpeg developers
  built with gcc 7 (Ubuntu 7.5.0-3ubuntu1~18.04)
  configuration: --prefix=/usr --extra-version=0ubuntu0.2 --toolchain=hardened --libdir=/usr/lib/x86_64-linux-gnu --incdir=/usr/include/x86_64-linux-gnu --enable-gpl --disable-stripping --enable-avresample --enable-avisynth --enable-gnutls --enable-ladspa --enable-libass --enable-libbluray --enable-libbs2b --enable-libcaca --enable-libcdio --enable-libflite --enable-libfontconfig --enable-libfreetype --enable-libfribidi --enable-libgme --enable-libgsm --enable-libmp3lame --enable-libmysofa --enable-libopenjpeg --enable-libopenmpt --enable-libopus --enable-libpulse --enable-librubberband --enable-librsvg --enable-libshine --enable-libsnappy --enable-libsoxr --enable-libspeex --enable-libssh --enable-libtheora --enable-libtwolame --enable-libvorbis --enable-libvpx --enable-libwavpack --enable-libwebp --enable-libx265 --enable-libxml2 --enable-libxvid --enable-libzmq --enable-libzvbi --enable-omx --enable-openal --enable-opengl --enable-sdl2 --enable-libdc1394 --enable-libdrm --enable-libiec61883 --enable-chromaprint --enable-frei0r --enable-libopencv --enable-libx264 --enable-shared
  libavutil      55. 78.100 / 55. 78.100
  libavcodec     57.107.100 / 57.107.100
  libavformat    57. 83.100 / 57. 83.100
  libavdevice    57. 10.100 / 57. 10.100
  libavfilter     6.107.100 /  6.107.100
  libavresample   3.  7.  0 /  3.  7.  0
  libswscale      4.  8.100 /  4.  8.100
  libswresample   2.  9.100 /  2.  9.100
  libpostproc    54.  7.100 / 54.  7.100
[rawvideo @ 0x556ce9851a20] Estimating duration from bitrate, this may be inaccurate
Input #0, rawvideo, from '../../SVC-Encoder-20220109T061506Z-001/SVC-Encoder/Dataset/RollerCoaster/ERP_8x8/tile_yuv/Tile_39_480x240.yuv':
  Duration: 00:00:10.00, start: 0.000000, bitrate: 41472 kb/s
    Stream #0:0: Video: rawvideo (I420 / 0x30323449), yuv420p, 480x240, 41472 kb/s, 30 tbr, 30 tbn, 30 tbc
Stream mapping:
  Stream #0:0 -> #0:0 (rawvideo (native) -> h264 (libx264))
Press [q] to stop, [?] for help
[libx264 @ 0x556ce985ec60] using cpu capabilities: MMX2 SSE2Fast LZCNT SSSE3 SSE4.2 AVX
[libx264 @ 0x556ce985ec60] profile High, level 2.1
Output #0, rawvideo, to 'RollerCoaster_Tile_39_480x240_x264_QP_28.h264':
  Metadata:
    encoder         : Lavf57.83.100
    Stream #0:0: Video: h264 (libx264), yuv420p, 480x240, q=-1--1, 30 fps, 30 tbn, 30 tbc
    Metadata:
      encoder         : Lavc57.107.100 libx264
    Side data:
      cpb: bitrate max/min/avg: 0/0/0 buffer size: 0 vbv_delay: -1
frame=  132 fps=0.0 q=34.0 PSNR=Y:nan U:nan V:nan *:nan size=     112kB time=00:00:02.96 bitrate= 310.0kbits/s speed=5.88x    frame=  248 fps=247 q=34.0 PSNR=Y:nan U:nan V:nan *:nan size=     237kB time=00:00:06.83 bitrate= 284.7kbits/s speed=6.79x    frame=  300 fps=223 q=34.0 LPSNR=Y:inf U:inf V:inf *:inf size=     336kB time=00:00:09.93 bitrate= 277.2kbits/s speed=7.38x    
video:336kB audio:0kB subtitle:0kB other streams:0kB global headers:0kB muxing overhead: 0.000000%
[libx264 @ 0x556ce985ec60] frame I:2     Avg QP:25.87  size: 15164  PSNR Mean Y:40.45 U:45.45 V:46.41 Avg:41.63 Global:41.63
[libx264 @ 0x556ce985ec60] frame P:76    Avg QP:28.06  size:  2866  PSNR Mean Y:37.74 U:45.23 V:45.93 Avg:39.15 Global:39.10
[libx264 @ 0x556ce985ec60] frame B:222   Avg QP:33.45  size:   433  PSNR Mean Y:37.25 U:45.04 V:45.69 Avg:38.69 Global:38.65
[libx264 @ 0x556ce985ec60] consecutive B-frames:  1.3%  0.0%  0.0% 98.7%
[libx264 @ 0x556ce985ec60] mb I  I16..4:  4.4% 75.7% 19.9%
[libx264 @ 0x556ce985ec60] mb P  I16..4:  0.3%  2.2%  0.5%  P16..4: 44.7% 22.8% 10.4%  0.0%  0.0%    skip:19.0%
[libx264 @ 0x556ce985ec60] mb B  I16..4:  0.0%  0.1%  0.0%  B16..8: 42.8%  5.1%  0.5%  direct: 0.4%  skip:50.9%  L0:40.3% L1:53.1% BI: 6.6%
[libx264 @ 0x556ce985ec60] 8x8 transform intra:74.7% inter:65.1%
[libx264 @ 0x556ce985ec60] coded y,uvDC,uvAC intra: 81.3% 79.7% 34.6% inter: 9.9% 7.2% 0.1%
[libx264 @ 0x556ce985ec60] i16 v,h,dc,p: 33% 16% 29% 22%
[libx264 @ 0x556ce985ec60] i8 v,h,dc,ddl,ddr,vr,hd,vl,hu: 19% 10% 14%  5%  7% 16%  7%  9% 14%
[libx264 @ 0x556ce985ec60] i4 v,h,dc,ddl,ddr,vr,hd,vl,hu: 24% 12% 18%  6%  7% 12%  6%  7%  7%
[libx264 @ 0x556ce985ec60] i8c dc,h,v,p: 45% 14% 26% 15%
[libx264 @ 0x556ce985ec60] Weighted P-Frames: Y:0.0% UV:0.0%
[libx264 @ 0x556ce985ec60] ref P L0: 60.2% 20.1% 16.3%  3.4%
[libx264 @ 0x556ce985ec60] ref B L0: 91.6%  7.5%  0.9%
[libx264 @ 0x556ce985ec60] ref B L1: 92.5%  7.5%
[libx264 @ 0x556ce985ec60] PSNR Mean Y:37.394 U:45.093 V:45.756 Avg:38.823 Global:38.777 kb/s:275.34
